<svg width="28" height="30" viewBox="0 0 28 30" fill="none" xmlns="http://www.w3.org/2000/svg">
<path d="M21.0771 16.356V13.1317C21.0726 12.8874 21.156 12.649 21.3134 12.4564C21.4708 12.2638 21.6926 12.1287 21.9418 12.0737H25.5952C25.8106 12.0737 26.024 12.0332 26.223 11.9544C26.422 11.8756 26.6029 11.7601 26.7552 11.6145C26.9075 11.469 27.0284 11.2961 27.1108 11.1059C27.1933 10.9157 27.2357 10.7119 27.2357 10.506V7.28173C27.2357 7.07582 27.1934 6.87191 27.1109 6.68165C27.0285 6.4914 26.9077 6.31852 26.7554 6.17289C26.603 6.02727 26.4222 5.91175 26.2231 5.83294C26.024 5.75413 25.8107 5.71356 25.5952 5.71356H21.9418C21.5586 5.66921 21.2072 5.48805 20.9579 5.20643C20.8653 5.09858 20.7903 4.97798 20.7354 4.84871V1.56817C20.7354 1.15226 20.5625 0.753393 20.2548 0.459305C19.9471 0.165217 19.5297 0 19.0945 0H15.4415C15.0063 0 14.5889 0.165217 14.2812 0.459305C13.9734 0.753393 13.8005 1.15226 13.8005 1.56817V4.63088C13.7279 4.78325 13.624 4.92019 13.4951 5.03364C13.2387 5.23887 12.9203 5.36029 12.5865 5.3801C12.5557 5.38356 12.5208 5.39569 12.4895 5.40088H8.84921C8.63376 5.40083 8.42041 5.44134 8.22135 5.5201C8.0223 5.59887 7.84143 5.71435 7.68908 5.85993C7.53674 6.00552 7.4159 6.17837 7.33348 6.3686C7.25106 6.55884 7.20867 6.76272 7.20873 6.96862V10.1924C7.20873 10.244 7.21961 10.292 7.22459 10.3423C7.21326 10.3817 7.19514 10.4241 7.18789 10.4614C7.14724 10.72 7.02939 10.962 6.84846 11.1582C6.61365 11.3821 6.30785 11.5254 5.97883 11.5657H2.40513C1.97036 11.5657 1.55337 11.7306 1.24577 12.0243C0.938176 12.3179 0.765129 12.7162 0.764648 13.1317V16.3555C0.764648 16.7713 0.937484 17.1701 1.24513 17.4641C1.55278 17.7581 1.97004 17.9233 2.40513 17.9233H6.21629C6.48551 17.9871 6.72857 18.1264 6.91417 18.3234C7.07894 18.5173 7.18238 18.7522 7.21236 19.0003C7.21598 19.0194 7.22505 19.0436 7.22912 19.0614C7.21824 19.1257 7.21158 19.1907 7.20918 19.2558V22.4796C7.20913 22.6856 7.25151 22.8895 7.33393 23.0797C7.41634 23.27 7.53717 23.4429 7.68951 23.5885C7.84185 23.7341 8.02271 23.8496 8.22177 23.9284C8.42084 24.0072 8.63419 24.0478 8.84966 24.0478H12.5018C12.5367 24.0478 12.5688 24.04 12.6033 24.0379C12.8657 24.078 13.1127 24.1824 13.3202 24.341C13.5415 24.5215 13.7074 24.7561 13.8001 25.0196V28.4318C13.8001 28.8477 13.973 29.2466 14.2807 29.5407C14.5884 29.8348 15.0058 30 15.441 30H19.094C19.5292 30 19.9466 29.8348 20.2543 29.5407C20.5621 29.2466 20.735 28.8477 20.735 28.4318V25.0196C20.8225 24.7728 20.983 24.5555 21.1971 24.3941C21.4113 24.2327 21.6697 24.1341 21.9413 24.1102H25.5948C25.8102 24.1102 26.0236 24.0696 26.2226 23.9908C26.4217 23.912 26.6026 23.7965 26.7549 23.6508C26.9073 23.5052 27.0281 23.3323 27.1105 23.1421C27.1929 22.9518 27.2353 22.7479 27.2352 22.542V19.193C27.2352 18.7772 27.0624 18.3785 26.7548 18.0845C26.4471 17.7905 26.0298 17.6253 25.5948 17.6253H21.9418C21.8093 17.6237 21.6787 17.5943 21.5594 17.5392C21.4401 17.4841 21.3349 17.4047 21.2511 17.3066C21.1226 17.1433 21.0607 16.9408 21.0771 16.7371V16.356ZM13.424 16.2693C13.424 16.4753 13.3816 16.6792 13.2992 16.8694C13.2168 17.0597 13.096 17.2326 12.9436 17.3782C12.7913 17.5238 12.6104 17.6393 12.4114 17.7181C12.2123 17.7969 11.999 17.8375 11.7835 17.8375H9.0332C8.81773 17.8375 8.60437 17.7969 8.40531 17.7181C8.20625 17.6393 8.02538 17.5238 7.87304 17.3782C7.7207 17.2326 7.59988 17.0597 7.51746 16.8694C7.43505 16.6792 7.39266 16.4753 7.39272 16.2693V13.6419C7.39266 13.436 7.43505 13.2321 7.51746 13.0418C7.59988 12.8515 7.7207 12.6787 7.87304 12.533C8.02538 12.3874 8.20625 12.2719 8.40531 12.1931C8.60437 12.1143 8.81773 12.0737 9.0332 12.0737H11.783C11.9985 12.0737 12.2119 12.1143 12.4109 12.1931C12.61 12.2719 12.7908 12.3874 12.9432 12.533C13.0955 12.6787 13.2164 12.8515 13.2988 13.0418C13.3812 13.2321 13.4236 13.436 13.4235 13.6419L13.424 16.2693ZM20.1903 22.3324C20.1903 22.5383 20.1478 22.7423 20.0653 22.9325C19.9829 23.1228 19.862 23.2956 19.7096 23.4413C19.5573 23.5869 19.3764 23.7024 19.1773 23.7812C18.9782 23.86 18.7648 23.9006 18.5493 23.9006H15.7995C15.3643 23.9006 14.9469 23.7353 14.6392 23.4413C14.3314 23.1472 14.1586 22.7483 14.1586 22.3324V19.7023C14.1586 19.2864 14.3314 18.8876 14.6392 18.5935C14.9469 18.2994 15.3643 18.1342 15.7995 18.1342H18.5489C18.9841 18.1342 19.4014 18.2994 19.7092 18.5935C20.0169 18.8876 20.1898 19.2864 20.1898 19.7023L20.1903 22.3324ZM20.1903 10.2098C20.1903 10.4157 20.1478 10.6196 20.0653 10.8099C19.9829 11.0001 19.862 11.173 19.7096 11.3186C19.5573 11.4642 19.3764 11.5797 19.1773 11.6585C18.9782 11.7374 18.7648 11.7779 18.5493 11.7779H15.7995C15.3643 11.7779 14.9469 11.6127 14.6392 11.3186C14.3314 11.0245 14.1586 10.6257 14.1586 10.2098V7.57882C14.1586 7.16292 14.3314 6.76405 14.6392 6.46996C14.9469 6.17587 15.3643 6.01065 15.7995 6.01065H18.5489C18.9841 6.01065 19.4014 6.17587 19.7092 6.46996C20.0169 6.76405 20.1898 7.16292 20.1898 7.57882L20.1903 10.2098Z" fill="#3A94AD"/>
</svg>
